<?xml version="1.0" encoding="utf-8"?>
<!-- Generator: Adobe Illustrator 25.1.0, SVG Export Plug-In . SVG Version: 6.00 Build 0)  -->
<svg version="1.1" xmlns="http://www.w3.org/2000/svg" xmlns:xlink="http://www.w3.org/1999/xlink" x="0px" y="0px"
	 viewBox="0 0 595.28 841.89" style="enable-background:new 0 0 595.28 841.89;" xml:space="preserve">
<style type="text/css">
	.st0{fill:#010202;stroke:#000000;stroke-miterlimit:10;}
	.st1{fill:#FFFFFF;}
	.st2{fill:#010202;stroke:#A8A526;stroke-width:6;stroke-linecap:round;stroke-miterlimit:10;}
	.st3{fill:#010202;stroke:#FFFFFF;stroke-width:2;stroke-linecap:round;stroke-miterlimit:10;}
	.st4{fill:none;stroke:#E2DCC0;stroke-width:2;stroke-linecap:round;stroke-miterlimit:10;}
	.st5{fill:none;stroke:#DDD3A4;stroke-width:3;stroke-linecap:round;stroke-miterlimit:10;}
	.st6{fill:none;stroke:#D9CC88;stroke-width:3;stroke-linecap:round;stroke-miterlimit:10;}
	.st7{fill:none;stroke:#CEC374;stroke-width:4;stroke-linecap:round;stroke-miterlimit:10;}
	.st8{fill:none;stroke:#C9C064;stroke-width:4;stroke-linecap:round;stroke-miterlimit:10;}
	.st9{fill:none;stroke:#BBB251;stroke-width:5;stroke-linecap:round;stroke-miterlimit:10;}
	.st10{fill:none;stroke:#ADA73B;stroke-width:5;stroke-linecap:round;stroke-miterlimit:10;}
	.st11{fill:none;stroke:#CAD405;stroke-width:6;stroke-linecap:round;stroke-miterlimit:10;}
	.st12{fill:none;stroke:#CAD405;stroke-width:5;stroke-linecap:round;stroke-miterlimit:10;}
	.st13{fill:none;stroke:#A8A526;stroke-width:5;stroke-linecap:round;stroke-miterlimit:10;}
	.st14{fill:none;stroke:#ADA73B;stroke-width:4;stroke-linecap:round;stroke-miterlimit:10;}
	.st15{fill:none;stroke:#BBB251;stroke-width:4;stroke-linecap:round;stroke-miterlimit:10;}
	.st16{fill:none;stroke:#C9C064;stroke-width:3;stroke-linecap:round;stroke-miterlimit:10;}
	.st17{fill:none;stroke:#CEC374;stroke-width:3;stroke-linecap:round;stroke-miterlimit:10;}
	.st18{fill:none;stroke:#D9CC88;stroke-width:2;stroke-linecap:round;stroke-miterlimit:10;}
	.st19{fill:none;stroke:#DDD3A4;stroke-width:2;stroke-linecap:round;stroke-miterlimit:10;}
	.st20{fill:#CAD400;}
</style>
<g id="zwart">
	<path class="st0" d="M491.33,547.6H98.57c-6.93,0-12.55-5.62-12.55-12.55V263.15c0-6.93,5.62-12.55,12.55-12.55h392.76
		c6.93,0,12.55,5.62,12.55,12.55v271.91C503.88,541.98,498.26,547.6,491.33,547.6z"/>
</g>
<g id="snelhedsmeter">
	<circle class="st1" cx="294.95" cy="418.25" r="10.25"/>
	<path class="st1" d="M359.76,332.7l-58.47,90.95c0,0-4.53-11.96-8.96-13.83L359.76,332.7z"/>
	<line class="st2" x1="439.87" y1="438.64" x2="403.83" y2="434.16"/>
	<line class="st3" x1="191.45" y1="420.94" x2="155.41" y2="420.94"/>
	<line class="st4" x1="167.61" y1="363.24" x2="199.21" y2="377.26"/>
	<line class="st5" x1="201.57" y1="316.06" x2="224.08" y2="340.64"/>
	<line class="st6" x1="248.52" y1="287.42" x2="260.3" y2="319.43"/>
	<line class="st7" x1="304.6" y1="278.91" x2="302.82" y2="312.29"/>
	<line class="st8" x1="364.91" y1="295.6" x2="350.01" y2="323.36"/>
	<line class="st9" x1="407.5" y1="330.6" x2="380.99" y2="352.4"/>
	<line class="st10" x1="434.08" y1="380.69" x2="399.14" y2="391"/>
	<line class="st11" x1="424.19" y1="485.92" x2="390.14" y2="468.44"/>
	<line class="st12" x1="433.37" y1="463.58" x2="413.32" y2="457.29"/>
	<line class="st13" x1="439.28" y1="408" x2="419.44" y2="409.81"/>
	<line class="st14" x1="424.19" y1="355.97" x2="406.05" y2="365.29"/>
	<line class="st15" x1="387.32" y1="310.55" x2="374.44" y2="326.4"/>
	<line class="st16" x1="337.01" y1="284.24" x2="331.29" y2="304.1"/>
	<line class="st17" x1="275.04" y1="280.5" x2="278.23" y2="300.31"/>
	<line class="st18" x1="224.16" y1="299.14" x2="234.36" y2="316.06"/>
	<line class="st19" x1="180.24" y1="340.64" x2="197.43" y2="352.4"/>
	<line class="st4" x1="157.66" y1="395.57" x2="177.14" y2="399.1"/>
</g>
<g id="naam">
	<g>
		<g>
			<path class="st1" d="M153.64,448.57h5.98v42.6h-5.98V448.57z M156.57,448.57h23.88v5.68h-23.88V448.57z M156.57,467.56h20.65
				v5.68h-20.65V467.56z"/>
			<path class="st1" d="M198.79,448.57h5.1l15.7,42.6h-6.45l-11.81-34.37l-11.81,34.37h-6.45L198.79,448.57z M190.32,476.14h22.41
				v5.68h-22.41V476.14z"/>
			<path class="st1" d="M226.04,448.57h5.42l20.83,32.93l-0.7,0.76v-33.69h5.92v42.57h-5.48l-20.77-32.43l0.7-0.76v33.19h-5.92
				V448.57z"/>
			<path class="st20" d="M274.21,489.65c-2.24-1.31-3.97-3.16-5.2-5.57s-1.85-5.19-1.85-8.35v-11.69c0-3.16,0.62-5.95,1.85-8.35
				s2.96-4.26,5.2-5.58c2.24-1.32,4.83-1.98,7.78-1.98c2.44,0,4.69,0.52,6.74,1.57c2.05,1.04,3.76,2.52,5.14,4.44
				c1.38,1.92,2.31,4.13,2.8,6.65h-6.12c-0.37-1.33-0.99-2.51-1.86-3.56c-0.87-1.04-1.89-1.85-3.06-2.42
				c-1.17-0.57-2.38-0.85-3.63-0.85c-1.74,0-3.26,0.42-4.57,1.26c-1.31,0.84-2.32,2.02-3.05,3.53c-0.72,1.51-1.08,3.28-1.08,5.29
				v11.69c0,1.99,0.36,3.75,1.08,5.27c0.72,1.52,1.74,2.7,3.05,3.53c1.31,0.83,2.83,1.25,4.57,1.25c1.27,0,2.49-0.26,3.65-0.79
				c1.16-0.53,2.18-1.31,3.05-2.34c0.87-1.04,1.49-2.27,1.86-3.69h6.12c-0.49,2.52-1.43,4.74-2.81,6.65
				c-1.39,1.92-3.11,3.39-5.16,4.44c-2.05,1.04-4.29,1.57-6.71,1.57C279.04,491.61,276.45,490.96,274.21,489.65z"/>
			<path class="st20" d="M316.77,448.57h5.1l15.7,42.6h-6.45l-11.81-34.37l-11.81,34.37h-6.45L316.77,448.57z M308.3,476.14h22.41
				v5.68H308.3V476.14z"/>
			<path class="st20" d="M344.01,448.54h5.98v42.63h-5.98V448.54z M346.62,467.47h14.53c1.13,0,2.14-0.27,3.02-0.82
				c0.88-0.55,1.56-1.32,2.04-2.33c0.48-1.01,0.72-2.16,0.72-3.47c0-1.31-0.24-2.46-0.72-3.47c-0.48-1.01-1.15-1.78-2.02-2.33
				c-0.87-0.55-1.88-0.82-3.03-0.82h-14.53v-5.68h14.3c2.46,0,4.62,0.51,6.49,1.52c1.87,1.02,3.31,2.46,4.34,4.32
				c1.03,1.87,1.54,4.02,1.54,6.46c0,2.44-0.52,4.6-1.55,6.46c-1.04,1.87-2.49,3.31-4.35,4.32c-1.87,1.02-4.02,1.52-6.46,1.52h-14.3
				V467.47z M358.22,471.84l5.95-1.35l10.9,20.68h-7.09L358.22,471.84z"/>
		</g>
	</g>
</g>
</svg>
